#N canvas 173 71 764 742 10;
#X declare -lib mrpeach;
#X floatatom 138 89 5 0 0 0 - - -;
#X msg 349 349 disconnect;
#X floatatom 398 77 5 0 0 0 - - -;
#X obj 56 215 import mrpeach;
#X msg 177 212 send /xa \$1;
#X msg 269 208 send /ya \$1;
#X obj 679 -65 vsl 15 128 0.7 0 0 0 empty empty empty 0 -9 0 10 -262144
-1 -1 0 1;
#X obj 183 264 packOSC;
#X obj 166 361 udpsend;
#X obj 43 -182 hsl 128 15 0 1 0 0 empty empty empty -2 -8 0 10 -262144
-1 -1 0 1;
#X floatatom 495 -67 5 0 0 0 - - -;
#X obj 475 -29 select 0 1 2 3 4 5;
#X obj 510 -127 bng 15 250 50 0 empty empty empty 17 7 0 10 -262144
-1 -1;
#X obj 511 -104 random 6;
#X obj 387 -8 0.11;
#X obj 445 8 0.22;
#X obj 518 7 0.44;
#X obj 555 13 0.55;
#X obj 607 11 0.66;
#X obj 481 9 0.33;
#X obj 317 -246 tgl 15 0 empty empty empty 17 7 0 10 -262144 -1 -1
0 1;
#X floatatom 381 -221 5 0 0 0 - - -;
#X obj 319 -198 bng 15 250 50 0 empty empty empty 17 7 0 10 -262144
-1 -1;
#X floatatom 318 -148 5 0 0 0 - - -;
#X obj 319 -174 counter 2;
#X obj 321 -117 select 0 1 2;
#X floatatom 168 -68 5 0 0 0 - - -;
#X obj 131 -19 select 0 1 2 3 4 5;
#X obj 166 -117 bng 15 250 50 0 empty empty empty 17 7 0 10 -262144
-1 -1;
#X obj 167 -94 random 6;
#X obj 43 2 0.16;
#X obj 101 18 0.32;
#X obj 137 19 0.48;
#X obj 174 17 0.64;
#X obj 211 23 0.8;
#X obj 263 21 0.96;
#X obj 319 -223 metro 150;
#X obj 486 265 dac~;
#X floatatom 614 186 5 0 0 0 - - -;
#X obj 462 155 osc~;
#X obj 486 201 *~ 0;
#X obj 412 123 *~ 600;
#X obj 487 126 *~ 400;
#X msg 347 316 connect 192.168.1.254 12000;
#X connect 0 0 4 0;
#X connect 0 0 41 0;
#X connect 1 0 8 0;
#X connect 2 0 5 0;
#X connect 2 0 42 0;
#X connect 4 0 7 0;
#X connect 5 0 7 0;
#X connect 6 0 2 0;
#X connect 7 0 8 0;
#X connect 7 1 8 0;
#X connect 9 0 0 0;
#X connect 10 0 11 0;
#X connect 11 0 14 0;
#X connect 11 1 15 0;
#X connect 11 2 19 0;
#X connect 11 3 16 0;
#X connect 11 4 17 0;
#X connect 11 5 18 0;
#X connect 12 0 13 0;
#X connect 13 0 10 0;
#X connect 14 0 2 0;
#X connect 15 0 2 0;
#X connect 16 0 2 0;
#X connect 17 0 2 0;
#X connect 18 0 2 0;
#X connect 20 0 36 0;
#X connect 21 0 36 1;
#X connect 22 0 24 0;
#X connect 23 0 25 0;
#X connect 24 0 23 0;
#X connect 25 0 28 0;
#X connect 25 1 12 0;
#X connect 26 0 27 0;
#X connect 27 0 30 0;
#X connect 27 1 31 0;
#X connect 27 2 32 0;
#X connect 27 3 33 0;
#X connect 27 4 34 0;
#X connect 27 5 35 0;
#X connect 28 0 29 0;
#X connect 29 0 26 0;
#X connect 30 0 0 0;
#X connect 31 0 0 0;
#X connect 32 0 0 0;
#X connect 33 0 0 0;
#X connect 34 0 0 0;
#X connect 35 0 0 0;
#X connect 36 0 22 0;
#X connect 38 0 40 1;
#X connect 39 0 40 0;
#X connect 40 0 37 0;
#X connect 40 0 37 1;
#X connect 41 0 39 0;
#X connect 42 0 39 0;
#X connect 43 0 8 0;
